<svg width="50" height="50" viewBox="0 0 50 50" fill="none" xmlns="http://www.w3.org/2000/svg">
<path d="M40.3507 16.9269C36.7682 20.334 31.7828 21.7119 27.0104 22.4008C22.7515 23.0271 18.3047 23.2902 14.4968 24.9436C10.5135 26.6848 8.00829 29.5658 8.20871 34.025C8.33397 36.7056 9.77447 39.3236 11.8037 41.3403C12.3674 41.7912 12.9436 42.2171 13.5448 42.6054C13.5072 42.5303 13.4697 42.4426 13.407 42.3674C10.9895 39.048 9.11059 29.5407 21.7619 27.4739C24.3047 27.0605 26.8475 26.6346 29.3778 26.0584C31.6075 25.5449 35.5908 24.2923 36.0292 24.0543C36.3924 23.8413 33.6617 26.9102 25.2943 29.3152C12.0041 33.1357 16.0876 44.1712 20.1461 45.4363C21.6993 45.8121 23.3277 46 24.9937 46C36.5928 46 45.9999 36.6054 45.9999 25.0063C45.9999 20.8351 44.7849 16.952 42.6931 13.6952C42.1294 14.9227 41.3402 15.9749 40.3507 16.9269Z" fill="#24F07D"/>
<path d="M4 25.0063C4 27.3111 4.37578 29.5031 5.05219 31.5825C5.30271 29.3027 6.07933 27.1482 7.53236 25.3194C10.1628 21.9749 14.2463 20.4092 18.4927 19.5699C22.7265 18.7432 27.2359 18.643 31.5825 17.5908C33.9875 17.0146 36.4301 16.0752 38.3716 14.5344C39.9875 13.2317 40.739 11.2526 39.0605 9.41127C38.4468 8.86012 37.7954 8.33403 37.119 7.85804C38.3466 10.3758 37.3946 14.1211 27.4363 15.0981C24.881 15.3612 22.3382 15.5992 19.8205 15.9499C19.0814 16.0501 18.167 16.1879 17.2276 16.3507C17.2276 16.3507 18.0543 15.3236 23.8914 13.9958C35.8914 11.2902 33.6493 6.06681 30.0919 4.6263C28.4635 4.22547 26.7474 4 24.9937 4C13.3946 4.01253 4 13.4071 4 25.0063Z" fill="#24F07D"/>
</svg>
